<svg xmlns="http://www.w3.org/2000/svg" viewBox="0 0 381.57 277.37"><defs><style>.cls-1{fill:#ede8f9;}.cls-2{fill:#45b2ef;}.cls-3{fill:#2b75a3;}.cls-4{fill:#a8e24d;}.cls-5{fill:#ffe94d;}.cls-6{fill:#a750cc;}.cls-7{fill:#7536b2;}.cls-8{fill:#ffbc50;}.cls-9{fill:#47a857;}.cls-10{fill:#d997fc;}.cls-11{fill:#c283ea;}.cls-12{fill:#535b9b;}.cls-13{fill:#313566;}.cls-14{fill:#98dcf4;}.cls-15{fill:#69a1b5;}.cls-16{opacity:0.5;}.cls-17{opacity:0.28;}.cls-18,.cls-37{fill:#fff;}.cls-19{fill:#ffc7ae;}.cls-20{fill:#252949;}.cls-21{fill:#3994d8;}.cls-22{fill:#ed8772;}.cls-23{fill:#4c3b35;}.cls-24{fill:#ad7561;}.cls-25{fill:#775447;}.cls-26{fill:#3e7059;}.cls-27{fill:#3b934c;}.cls-28{fill:#b1e5fc;}.cls-29,.cls-37{opacity:0.46;}.cls-30{fill:#ffed85;}.cls-31{fill:#c18472;}.cls-32{fill:#572a8c;}.cls-33{fill:#ebf4f7;}.cls-34{fill:#79a7af;opacity:0.24;}.cls-35{fill:#437291;}.cls-36{fill:#f5fbfc;}.cls-38{fill:#eff7f9;}.cls-39{fill:#b4cfd3;}.cls-40{fill:#2c4163;opacity:0.37;}.cls-41{opacity:0.55;}.cls-42{opacity:0.53;}.cls-43{opacity:0.44;}</style></defs><g id="Vector_illustration" data-name="Vector illustration"><path class="cls-1" d="M128.55,260.17c-22.64.71-46.05,1.45-70.75-14.47-21.19-13.65-30.34-32.45-25.12-51.56,5.32-19.51,25-34.29,46.71-35.15,25.9-1,45.47-10.41,52.37-25.12,6.53-13.91,1.51-32.3-14.51-53.2-23.46-30.61-14.39-45.3-9.39-50.2,10.58-10.38,32.68-9.27,47.28,2.39,30.1,24,59.09,41.6,109.26,13.72,14.58-8.11,31-8.58,48.87-1.41A101.34,101.34,0,0,1,328.47,53q.5-3.06,1-6.25c6.5-42-51.2-38.2-106.25-16.26S184.36-15.1,117.13,3.18s-7.37,121.48-63.32,128.87c-23.51,3.1-42.81,16-46.93,40.45-5.33,31.58,3.49,74.66,34.63,90.44,23.19,11.76,51.31,13.75,76.86,14.36,20.06.49,40.07-1.74,60.12-2,1.88,0,3.76,0,5.63-.05,3.08,0,6.17,0,9.25,0C172.73,258.8,151.26,259.46,128.55,260.17Z"/><path class="cls-1" d="M262.92,190.07c5.59-4.84,17-2.34,34.79,7.66,27.34,15.34,51.7,12.67,66.82-7.32,7.65-10.12,11.78-23.28,12.23-35.64-4.41-12.86-11.9-23.26-22.69-27.11C318.71,115,322.25,92,328.17,54.86a95.72,95.72,0,0,0-18.06-9c-16.35-5.94-31.44-5.17-44.86,2.28-24,13.32-45.44,17.3-65.63,12.17C182.13,55.86,168.08,45.44,154,34.24s-35-12.31-44.95-2.51-6.35,27.1,9.57,47.87c16.44,21.45,21.53,40.48,14.7,55-7.18,15.32-27.33,25.09-53.9,26.14-21,.82-39.95,15.06-45.08,33.84-5,18.33,3.89,36.41,24.37,49.61C83,259.83,106.12,259.1,128.49,258.4c23.37-.73,45.45-1.42,66.86,16.18l.86.68c14.33,0,28.67.16,43-.22,12.1-.32,28.73.49,41.71-3.61-1.79-5-3.88-10.37-6-15.94C264.61,228.88,253,198.72,262.92,190.07Z"/><path class="cls-1" d="M378.16,159.3c-1.18,11.37-5.28,23-12.22,32.18-9,11.89-21.1,17.91-35.09,17.91-10.45,0-22-3.35-34-10.12-16.86-9.45-27.88-12.1-32.77-7.86-9,7.83,2.89,38.67,12.47,63.44,2.16,5.6,4.26,11,6.06,16a34.73,34.73,0,0,0,7.22-3.5C308,255.58,321,230.91,355.1,233.12,378.35,234.63,387,191.29,378.16,159.3Z"/><path class="cls-2" d="M218.86,105.06S214,70.88,204.2,65.16s-14.83,1.11-22.49-6.36-7.52-9.22-13.71-8.11-10.91-14.15-18.29-14.15-15,1.75-24-4.45-13.85-6.68-13.56,2.54,2.06,20.19,8.26,22.42S130.55,63.57,131,69.29s2.65,8.9,8.11,9.86,5.9,7.67,10.76,12.66,6.78-1.69,10.91,3.55-1.73,8.31,5.69,13.86S218.86,105.06,218.86,105.06Z"/><path class="cls-3" d="M210.68,106.69s-23.81-14-43.57-29.29-43.05-36.09-43.05-36.09S165.78,76,179.64,83.6,210.68,106.69,210.68,106.69Z"/><path class="cls-4" d="M218.86,99.43s-11.13-17.37-5.38-28.81,1.1-16.3-.67-21.17,6-8,5.09-15.26-4.89-13.1-2.56-16.61,3.37-5.5,3.52-2.63,2.14,11.28,4.35,16.81-2.66,15.39,0,23.4,3.32,11.1,1.77,18-.89,11.72,2.43,16.15a96.31,96.31,0,0,1,6.47,10.26Z"/><path class="cls-5" d="M224.28,99.43S219,86.16,221.22,80.19s8.18-13,6.63-23.64,1.89-10.79,6-16.24,3-12.76,3-12.76S242,43.05,238,47.36s.34,12.62-4.15,19.41,3,32.66,3,32.66Z"/><path class="cls-6" d="M240.12,107.78s-5.84-4.07-6.59-9.9-3-26,6.63-31,10.41-7,12.33-15.09,3-5.59,6.57-9.18-1.92-11.35.33-15,12.81-4.36,16.33-6.94.17-12.71,6-17,15.66-2.24,15.18,2.81-8,13.26-4.65,20.87S297.5,39.9,294,42.48s-7.05,6.85-4.33,20S279,79.71,273.93,83s-1.07,10.22-6.53,14.9-12.24-2.54-13.66,5.94S240.12,107.78,240.12,107.78Z"/><path class="cls-7" d="M243.16,108.6A223.8,223.8,0,0,0,268.75,64c10.65-25.27,17.07-46.42,17.07-46.42S264.62,73.87,254.33,89s-14.21,18.77-14.21,18.77Z"/><path class="cls-5" d="M271.24,173s-7.17-4.09-8.91-10.62-7.37-29.2,2.61-35.76,10.57-8.81,11.47-18.19,2.54-6.6,5.93-11-3.91-12.69-2-17S294,74.34,297.59,71.1s-1.79-14.41,4.05-19.75,17.18-3.94,17.43,1.83-6.92,15.73-2,24.05,7.87,13.78,4.32,17-6.83,8.38-1.75,23-9.21,20.51-14.42,24.68.4,11.68-5,17.46-14.08-1.77-14.36,8S271.24,173,271.24,173Z"/><path class="cls-8" d="M274.77,173.67a238.21,238.21,0,0,0,21.73-52.8c8-29.57,11.92-54.1,11.92-54.1s-15,65.65-24.18,83.71-13,22.53-13,22.53Z"/><path class="cls-4" d="M267.69,135.23s-5.05-1.95-6.66-6.13-6.92-18.7-.72-24.15,6.44-7,6.39-13.39,1.24-4.68,3.2-8-3.48-8-2.48-11.16,8.68-5.54,10.82-8.08-2.18-9.43,1.35-13.63,11.17-4.49,11.72-.67-3.52,11.25.34,16.27,6.19,8.35,4.05,10.9-4,6.33.41,15.54-4.73,14.69-7.91,18,1.07,7.75-2.13,12.2-9.5.34-9,6.86S267.69,135.23,267.69,135.23Z"/><path class="cls-9" d="M270.09,135.29a170.33,170.33,0,0,0,10.85-37.61c3.3-20.61,4.21-37.41,4.21-37.41s-5.48,45.45-10.34,58.51-7.12,16.45-7.12,16.45Z"/><path class="cls-10" d="M127.94,91.66l-5.67-1.23a30.75,30.75,0,0,0-1.84-4.4l3.15-4.89a2.21,2.21,0,0,0-.3-2.75l-8.83-8.84a2.21,2.21,0,0,0-2.76-.29l-4.88,3.13a32.89,32.89,0,0,0-4.4-1.82l-1.24-5.68A2.2,2.2,0,0,0,99,63.16H86.51a2.21,2.21,0,0,0-2.16,1.73l-1.23,5.68a32.36,32.36,0,0,0-4.4,1.82l-4.88-3.13a2.19,2.19,0,0,0-2.75.29l-8.85,8.84A2.2,2.2,0,0,0,62,81.14L65.09,86a31.84,31.84,0,0,0-1.82,4.4L57.6,91.66a2.21,2.21,0,0,0-1.75,2.16v12.49a2.21,2.21,0,0,0,1.75,2.16l3.41.75,2.26.48a31.46,31.46,0,0,0,1.82,4.41l-.23.36L62,119a2.2,2.2,0,0,0,.29,2.75l8.85,8.84a2.22,2.22,0,0,0,2.75.3l4.88-3.15a31.19,31.19,0,0,0,4.4,1.83l1.23,5.67A2.21,2.21,0,0,0,86.51,137H99a2.14,2.14,0,0,0,1.79-.93,1.88,1.88,0,0,0,.36-.8l1.24-5.67a31.68,31.68,0,0,0,4.4-1.83l4.88,3.15a2.24,2.24,0,0,0,2.76-.3l8.83-8.84a2.21,2.21,0,0,0,.3-2.75l-3.15-4.89a30.4,30.4,0,0,0,1.84-4.41l5.67-1.23a2.23,2.23,0,0,0,1.74-2.16V93.82A2.23,2.23,0,0,0,127.94,91.66Zm-35.18,24.7a16.29,16.29,0,1,1,16.29-16.29A16.3,16.3,0,0,1,92.76,116.36Z"/><path class="cls-11" d="M41.7,113.6,40,110.94a17.43,17.43,0,0,0,1-2.41l3.1-.67a1.19,1.19,0,0,0,.94-1.17V99.88a1.2,1.2,0,0,0-1-1.18L41,98a16.81,16.81,0,0,0-1-2.4L41.7,93a1.2,1.2,0,0,0-.16-1.5l-4.82-4.82a1.21,1.21,0,0,0-1.5-.16L32.56,88.2a16.81,16.81,0,0,0-2.4-1l-.67-3.09a1.21,1.21,0,0,0-1.17-1H21.5a1.21,1.21,0,0,0-1.17.94l-.67,3.1a15.78,15.78,0,0,0-2.4,1L14.6,86.49a1.22,1.22,0,0,0-1.51.16L8.28,91.47A1.21,1.21,0,0,0,8.12,93l1,1.6.68,1.06a17.31,17.31,0,0,0-1,2.4l-.23,0-2.87.62a1.2,1.2,0,0,0-.94,1.17v6.82a1.19,1.19,0,0,0,.94,1.17l3.1.67a16.81,16.81,0,0,0,1,2.4l-1.71,2.66a1.21,1.21,0,0,0,.16,1.5l4.82,4.82a1.14,1.14,0,0,0,1.05.33,1.08,1.08,0,0,0,.45-.17l2.66-1.71a18.11,18.11,0,0,0,2.4,1l.67,3.09a1.22,1.22,0,0,0,1.17,1h6.82a1.2,1.2,0,0,0,1.17-.94l.67-3.1a16.28,16.28,0,0,0,2.41-1l2.66,1.71a1.21,1.21,0,0,0,1.5-.16l4.81-4.81A1.21,1.21,0,0,0,41.7,113.6Zm-23.07-4a8.88,8.88,0,1,1,12.56,0A8.9,8.9,0,0,1,18.63,109.56Z"/><path class="cls-10" d="M26.63,148.81l-2.09-.45a12.19,12.19,0,0,0-.68-1.63L25,144.92a.8.8,0,0,0-.11-1l-3.26-3.27a.82.82,0,0,0-1-.1l-1.8,1.15A12.7,12.7,0,0,0,17.2,141l-.46-2.1a.81.81,0,0,0-.79-.64H11.33a.82.82,0,0,0-.8.64l-.46,2.1a12,12,0,0,0-1.62.67l-1.8-1.15a.81.81,0,0,0-1,.1l-3.27,3.27a.8.8,0,0,0-.11,1l1.17,1.81a11,11,0,0,0-.68,1.63l-2.09.45a.81.81,0,0,0-.65.8v4.61a.81.81,0,0,0,.65.8l1.26.28.83.18a10.47,10.47,0,0,0,.68,1.62l-.09.14-1.08,1.67a.82.82,0,0,0,.11,1l3.27,3.26a.82.82,0,0,0,1,.11l1.8-1.16a10.84,10.84,0,0,0,1.62.67l.46,2.1a.81.81,0,0,0,.8.64H16a.79.79,0,0,0,.66-.34.67.67,0,0,0,.13-.3l.46-2.1a11.41,11.41,0,0,0,1.63-.67l1.8,1.16a.82.82,0,0,0,1-.11l3.26-3.26a.82.82,0,0,0,.11-1l-1.16-1.81a11.55,11.55,0,0,0,.68-1.62l2.09-.46a.82.82,0,0,0,.64-.8v-4.61A.82.82,0,0,0,26.63,148.81Zm-13,9.12a6,6,0,1,1,6-6A6,6,0,0,1,13.64,157.93Z"/><path class="cls-12" d="M378.34,133.87l-2.1-.46a10.47,10.47,0,0,0-.68-1.62l1.16-1.81a.82.82,0,0,0-.1-1l-3.27-3.26a.82.82,0,0,0-1-.11l-1.8,1.16a11,11,0,0,0-1.63-.67l-.45-2.1a.81.81,0,0,0-.8-.64H363a.82.82,0,0,0-.8.64l-.45,2.1a11,11,0,0,0-1.63.67l-1.8-1.16a.82.82,0,0,0-1,.11L354.07,129a.82.82,0,0,0-.11,1l1.16,1.81a10.42,10.42,0,0,0-.67,1.62l-2.1.46a.81.81,0,0,0-.65.8v4.61a.81.81,0,0,0,.65.8l1.26.27.84.18a10.53,10.53,0,0,0,.67,1.63l-.09.13L354,144a.8.8,0,0,0,.11,1l3.26,3.27a.83.83,0,0,0,1,.11l1.8-1.16a12.14,12.14,0,0,0,1.63.67l.45,2.1a.83.83,0,0,0,.8.64h4.62a.76.76,0,0,0,.66-.35.71.71,0,0,0,.14-.29l.45-2.1a12.14,12.14,0,0,0,1.63-.67l1.8,1.16a.83.83,0,0,0,1-.11l3.27-3.27a.8.8,0,0,0,.1-1l-1.16-1.81a10.58,10.58,0,0,0,.68-1.63l2.1-.45a.82.82,0,0,0,.64-.8v-4.61A.82.82,0,0,0,378.34,133.87Zm-13,9.12a6,6,0,1,1,6-6A6,6,0,0,1,365.34,143Z"/><rect class="cls-13" x="97.28" y="99.43" width="197.8" height="115.95" rx="7"/><path class="cls-14" d="M291.07,109.47v95.87a6.19,6.19,0,0,1-6.19,6.19H107.48a6.18,6.18,0,0,1-6.19-6.19V109.47a6.19,6.19,0,0,1,6.19-6.19h177.4A6.19,6.19,0,0,1,291.07,109.47Z"/><rect class="cls-15" x="109.76" y="110.93" width="41.97" height="29.19" rx="8"/><rect class="cls-15" x="109.76" y="160.46" width="34.79" height="18.44" rx="8"/><g class="cls-16"><path class="cls-15" d="M147,154.59H114.49a4.73,4.73,0,0,1-4.73-4.73h0a4.73,4.73,0,0,1,4.73-4.73H147a4.73,4.73,0,0,1,4.73,4.73h0A4.72,4.72,0,0,1,147,154.59Z"/></g><g class="cls-16"><path class="cls-15" d="M272.16,201.63h-46.1a4.73,4.73,0,0,1-4.73-4.73h0a4.73,4.73,0,0,1,4.73-4.73h46.1a4.73,4.73,0,0,1,4.73,4.73h0A4.73,4.73,0,0,1,272.16,201.63Z"/></g><g class="cls-16"><path class="cls-15" d="M275.11,121.77H229a4.73,4.73,0,0,1-4.73-4.73h0a4.73,4.73,0,0,1,4.73-4.73h46.1a4.73,4.73,0,0,1,4.73,4.73h0A4.73,4.73,0,0,1,275.11,121.77Z"/></g><path class="cls-15" d="M253.75,138.08H230.89a4.74,4.74,0,0,1-4.74-4.73h0a4.74,4.74,0,0,1,4.74-4.73h22.86a4.73,4.73,0,0,1,4.73,4.73h0A4.73,4.73,0,0,1,253.75,138.08Z"/><path class="cls-13" d="M304.07,219.82c0,.17,0,.34,0,.51a5.79,5.79,0,0,1-5.78,5.29H92.85a5.77,5.77,0,0,1-5.76-5.29,4.36,4.36,0,0,1,0-.51,5.8,5.8,0,0,1,5.79-5.8H298.27A5.8,5.8,0,0,1,304.07,219.82Z"/><path class="cls-12" d="M304.07,219.82c0,.17,0,.34,0,.51h-217a4.36,4.36,0,0,1,0-.51,5.8,5.8,0,0,1,5.79-5.8H298.27A5.8,5.8,0,0,1,304.07,219.82Z"/><g class="cls-16"><path class="cls-15" d="M291.07,191.34v14a6.19,6.19,0,0,1-6.19,6.19H107.48a6.18,6.18,0,0,1-6.19-6.19v-14Z"/></g><g class="cls-17"><polygon class="cls-18" points="166.41 103.28 101.29 177.51 101.29 146 138.98 103.28 166.41 103.28"/><path class="cls-18" d="M207.43,103.28,109,211.53h-1.54a6.2,6.2,0,0,1-5.73-3.84l94.68-104.41Z"/><polygon class="cls-18" points="281.57 103.28 185.86 211.53 160.42 211.53 256.54 103.28 281.57 103.28"/><polygon class="cls-18" points="291.07 137.27 291.07 150.46 235.19 211.53 222.23 211.53 291.07 137.27"/></g><path class="cls-13" d="M41.06,214s-12.39-30.66-11.8-36,4.43-6.34,13.72-6.93,9.8,42.9,9.8,42.9Z"/><path class="cls-12" d="M41,217.18l-5.3,39.67a1,1,0,0,0,.78,1.12h0a1,1,0,0,0,1.23-.84l5.77-39.67a1,1,0,0,0-1-1.16H42A1,1,0,0,0,41,217.18Z"/><path class="cls-12" d="M47.11,216.48l6.51,40.41a1,1,0,0,0,1.08.88h0a1,1,0,0,0,.93-1.18l-6.06-40.54a1,1,0,0,0-1.3-.85l-.46.13A1,1,0,0,0,47.11,216.48Z"/><path class="cls-12" d="M70.89,216.48l6.52,40.41a1,1,0,0,0,1.08.88h0a1,1,0,0,0,.93-1.18l-6.07-40.54a1,1,0,0,0-1.3-.85l-.45.13A1,1,0,0,0,70.89,216.48Z"/><path class="cls-19" d="M58.29,162.29c-.67,2.93-3.92,3.48-3.92,4.37a3.93,3.93,0,0,1-.2,1.2,2.44,2.44,0,0,1-2.48,1.72,3.56,3.56,0,0,1-3.13-2.31,14.36,14.36,0,0,1-2.27-5.14c-1-3.77.39-8.35.39-8.35s3.48-3.93,8.24-2.94S59,159.36,58.29,162.29Z"/><path class="cls-6" d="M63.32,182.24c-.34,9.08-2.55,19.46-3.54,21.13a5.43,5.43,0,0,1-3.09,2.16H49.22c-3,0-7.3-1.06-8-2.06a2.65,2.65,0,0,1-.15-1.8,14.52,14.52,0,0,1,.69-2.43h0l0,0h0v0h0a17.52,17.52,0,0,1-2.09-.74c-2.6-1-2.1-8.45-2-14.81s.61-10.18,2.27-11.73,8.68-4.69,8.68-4.69a3.56,3.56,0,0,0,3.13,2.31,2.44,2.44,0,0,0,2.48-1.72,25.87,25.87,0,0,0,3.48-.13c1-.11,1.9.42,3.21,1.85l0,0C61.18,170,63.64,173.72,63.32,182.24Z"/><path class="cls-7" d="M44.45,178.89a60.75,60.75,0,0,1,0,7.51c-.3,2.52-.81,4-.44,4.14s5.89-2.87,6.78-2.95l.88-.07a10,10,0,0,0-3.89-.52C45.26,187.08,44.45,178.89,44.45,178.89Z"/><path class="cls-7" d="M53.27,191.35c-.48.72-4.47,6.57-9,8.77l-3.17,1.55a14.52,14.52,0,0,1,.69-2.43h0a38.63,38.63,0,0,0,6.8-3.75A32.25,32.25,0,0,0,53.27,191.35Z"/><polygon class="cls-18" points="53.81 199.83 57.5 176.94 72.5 176.94 68.54 199.83 53.81 199.83"/><path class="cls-19" d="M71.48,182.85s2.07,3.82,1.63,5.53-4.43,1.77-4.92.83.92-1.1.92-1.1-1.19-.74-1-1.31,1.43-.79,1.43-.79-.33-1.25.44-1.29S71.48,182.85,71.48,182.85Z"/><path class="cls-20" d="M58.77,203.92s19.59,2.4,22.83,8.88S88,246.49,87.72,247s-4.72,1-5.09,0-8.25-28.9-9.8-30.52-19-11.27-19-11.27a12.74,12.74,0,0,1,2.58-1.3C58,203.29,58.77,203.92,58.77,203.92Z"/><path class="cls-13" d="M41.75,203.92s-2.42,6.23,2.13,9.62,20.69,5.23,20.55,7.52S57.64,242.14,57.87,244s3.31,3,4.42,2.51,8.55-20,9.51-22.48,3.39-8.11,1-10.4-16.14-8.08-16.14-8.08Z"/><path class="cls-21" d="M58.28,245s-2.77,6.54-1.81,7.72,9.43,4.06,10,4.06-.59-1.92-2.95-4.06S61,251,61,249.88a25.56,25.56,0,0,1,.41-3.3Z"/><path class="cls-21" d="M83.67,247.6A40.71,40.71,0,0,1,85,253.94c0,1.62,2.14,2,3.84,1.4s7.66-1.77,7.22-2.88-5.53-1.09-6.86-1.61-2.64-3.42-2.64-3.42Z"/><path class="cls-12" d="M87.73,208.6H41.64a1.54,1.54,0,0,1-1.54-1.54h0a1.53,1.53,0,0,1,1.54-1.53H87.73a1.53,1.53,0,0,1,1.54,1.53h0A1.54,1.54,0,0,1,87.73,208.6Z"/><path class="cls-5" d="M85.5,202.41H54.34A1.56,1.56,0,0,0,52.78,204h0a1.56,1.56,0,0,0,1.56,1.56H85.5A1.56,1.56,0,0,0,87.06,204h0A1.56,1.56,0,0,0,85.5,202.41Z"/><rect class="cls-21" x="64.13" y="198.5" width="27.42" height="3.91" rx="1"/><path class="cls-12" d="M62,216.3H39.93a1.16,1.16,0,0,1-1.16-1.16h0A1.16,1.16,0,0,1,39.93,214H62a1.16,1.16,0,0,1,1.16,1.16h0A1.16,1.16,0,0,1,62,216.3Z"/><path class="cls-19" d="M51.67,187.52s1.92-2.47,2.77-3.54a8.48,8.48,0,0,1,1.91-1.73v2.47a11.07,11.07,0,0,0,3.17-.81c1.11-.59,3-1.48,3.06-.78a4.32,4.32,0,0,1,0,.89s.74.26.74.7a4.56,4.56,0,0,1-1.36,2.8c-.92.7-7.71,3.32-8.07,3.54a2.88,2.88,0,0,1-.62.29,7.6,7.6,0,0,0-.45-2.5,4.14,4.14,0,0,0-1.15-1.52"/><path class="cls-22" d="M57,164s-2.89,1.66-4.65,1.6a4.91,4.91,0,0,1-2.77-.86s1.35,3.24,3.5,2.94S57,164,57,164Z"/><path class="cls-13" d="M61.55,164.45s-1.77,0-1.49-5.53S58.79,147.09,52.82,147,43.2,150.46,42.7,156s.94,5.64.28,8.41-1.94,3.48-.61,4,5.42-.27,6.19-1.21A4.9,4.9,0,0,0,49,162c-1.21-2-1.21-3.43-.39-5a24.9,24.9,0,0,0,1.11-2.26,4.07,4.07,0,0,0,2.93,0,10.12,10.12,0,0,0,2.43-1.55A4.54,4.54,0,0,1,57,156.43c.27,1.93.55,5.8-.44,6.8s-3.32,2.38-3.32,3.26.16,1.6,2.38,1.44,4.09-.39,5.14-1.38A2.28,2.28,0,0,0,61.55,164.45Z"/><path class="cls-13" d="M352.51,214.74s2.61.29,2.34,1.23-1.84,1.46-5.09,1-6.25-1.33-4.53-2.49S352.51,214.74,352.51,214.74Z"/><path class="cls-12" d="M350.73,217.08l4.44,38.18a1.08,1.08,0,0,0,1.3.94h0a1.09,1.09,0,0,0,.86-1.18l-4.12-38Z"/><path class="cls-12" d="M346.09,216.17l-7,38.07a1.08,1.08,0,0,0,1,1.28h0a1.07,1.07,0,0,0,1.17-.87l7.38-37.86Z"/><path class="cls-13" d="M354.94,175.26s10.76.54,10.39,6.21-9.05,33.88-12.82,33.27-8.91-27.47-5.05-34.37S354.94,175.26,354.94,175.26Z"/><path class="cls-23" d="M340.5,156.29s-2.19-2.85,0-4.67,11.08-1.55,12.74,3a8.14,8.14,0,0,1-6.58,11.06C340.69,166.6,340.5,156.29,340.5,156.29Z"/><path class="cls-5" d="M360.93,191c0,.26,0,.48,0,.67,0,1.26-.61,1.28-3.3,1.71-3.09.5-3.62.27-3.62.27s-1.24.84-1.46,3.6.1,15.37,0,17-1.28,1.16-6,0-19.85-6.19-20.29-7.24,4.75-3.26,7-8.91c2.1-5.22,2.87-13.82,2.71-15.71a1.42,1.42,0,0,0-.05-.32c-.33-.8-8.12-1.09-9-1.55l-.06-.05a2,2,0,0,1-.13-.9,19,19,0,0,1,1-6.07,2,2,0,0,1,.25-.39c.75-1,2.12-.94,5.39-1,3.65-.05,9,0,9,0s.17,1,2.55,1.21a5.67,5.67,0,0,0,3.75-.93,40.75,40.75,0,0,1,8.79,4.26C363.14,180.09,360.76,189.1,360.93,191Z"/><path class="cls-8" d="M361,191.71c0,1.25-.61,1.27-3.3,1.71a20.27,20.27,0,0,1-4.53.35s.33-9.2.48-8.61-.09,5.2,3.39,6.42A6,6,0,0,0,361,191.71Z"/><path class="cls-24" d="M328,173.17a2,2,0,0,0-.25.39,19,19,0,0,0-1,6.07,37.37,37.37,0,0,1-5.27-1h0c-1.48-.42-2.8-1-3.25-1.71-1.21-1.91-3.49-19-5-21.68s-2.5-5.71-1.51-6.6,2.06-.76,2.21-1.39.44-7.67,1.07-7.08,1,3.43,1,6.38a42.75,42.75,0,0,0,.71,8.37c.4,1.36,2.47,8,3.83,12.12s1.65,5.12,2.06,5.13,2.73.38,4.51.78Z"/><path class="cls-24" d="M349.73,163.15c-.74.61-1.47,3.61-1.43,5.55a22,22,0,0,0,.4,3.76,5.64,5.64,0,0,1-3.75.94c-2.38-.16-2.54-1.21-2.54-1.21s.16-.9.23-1.83.06-1.71-.23-2a5.74,5.74,0,0,0-.47-.35h0a14.12,14.12,0,0,1-1.29-.82c-.89-.74-.92-2-1-3.05a18.06,18.06,0,0,1,0-3.82,19.8,19.8,0,0,1,.94-4.06,3.59,3.59,0,0,0,2.3,0c.79-.47,2.37-1.41,3.61-1s2.16.47,2.21,1.83-.32,3.09.47,3.09,1.75-.06,1.86.64A3.09,3.09,0,0,1,349.73,163.15Z"/><path class="cls-25" d="M347.46,167.41c-.08.2-1.52,3.46-3.39,3.64a1.5,1.5,0,0,1-1.43-.69c.07-.84.06-1.71-.23-2a5.74,5.74,0,0,0-.47-.35,3.75,3.75,0,0,0,2.73.38A28.18,28.18,0,0,0,347.46,167.41Z"/><path class="cls-26" d="M349.28,215s-.68,1.76-7.32,2.2-16.58-.66-18.68,1.88-3.32,31.29-4.54,32.29-4.64-.67-5-2.33-2-38.14,2.76-40.47a17.88,17.88,0,0,1,9.73-1.49Z"/><path class="cls-27" d="M324.05,202.27s-10.06-1.65-12.71,0-2.44,6.63-1.22,9.06,15.59,25,17,24.77,4.23-1.33,4.1-2.55-9.08-20.45-9.74-22.33,6-4.83,6-4.83Z"/><path class="cls-8" d="M330.87,234.43a6.18,6.18,0,0,1,1.51,5.5c-.66,3.46-4.13,10-5.09,9.58s-2.87-2.72-1.76-6.26,1.76-3.69,1.91-5,.16-2.22.16-2.22Z"/><path class="cls-8" d="M314.9,250.57a32.27,32.27,0,0,1-8.25,3.44c-4.49,1.11-4,2.58-3.46,2.73s14.45.66,15.55-1-.28-4.26-.28-4.26Z"/><rect class="cls-12" x="305.91" y="206.93" width="46.67" height="3.41" rx="1.7"/><rect class="cls-28" x="307.62" y="204.4" width="16.8" height="2.53"/><path class="cls-24" d="M359.55,193.09s-.78,7.18-3.06,8.43a9.28,9.28,0,0,1-2.53.76h0c-.51.11-1.06.21-1.66.3h0l-.54.09a95.08,95.08,0,0,1-11.31.9c-3.68,0-5.44-.4-6.33,0s-7.66,3.6-8.3,3.14-1.32-2.55-1.74-2.94-5.53.91-5.75.31,1.55-1.2,3.32-1.36,7.69-1.8,9.21-1.85,3-.77,5.11-1.19,8.51-1.05,11.14-1.47a38.26,38.26,0,0,0,5.57-1.43l.29-1.77.21-1.25Z"/><path class="cls-9" d="M311,211.11s13.25,24.15,15.82,22.08-5.11-16.11-7.91-19.59S311,211.11,311,211.11Z"/><g class="cls-29"><path class="cls-27" d="M314.18,223.69s3.65-.08,3.43,5.6-2.58,24.36-3.43,17.85S314.18,223.69,314.18,223.69Z"/></g><path class="cls-13" d="M352.58,208.63h0a1.7,1.7,0,0,1-1.69,1.7H307.61a1.7,1.7,0,0,1-1.7-1.7h46.67Z"/><path class="cls-30" d="M338.9,183.19c-.36,2.11-4.13,10.63-.68,11.71,3.09,1,12.34-1.92,12.51-9.77s-3.14-6.22-6.87-7.84S338.94,183,338.9,183.19Z"/><path class="cls-8" d="M336,182.45a1.42,1.42,0,0,0-.05-.32c-.33-.8-8.12-1.09-9-1.55l-.06-.05s4.29.49,6.5-.9a5.88,5.88,0,0,0,2.66-3.37A17.15,17.15,0,0,1,336,182.45Z"/><path class="cls-31" d="M335.08,200.36s-.3,1.08,4,1.18,14.47-.13,14.58-2.12-.83-2.32-3.26-1.54S335.08,200.36,335.08,200.36Z"/><path class="cls-25" d="M359.55,193.09s-.78,7.18-3.06,8.43a9.28,9.28,0,0,1-2.53.76,6.18,6.18,0,0,0,4-5.51c0-2.44-3.89-2-5.06-1.75l.21-1.25Z"/><path class="cls-31" d="M315.81,155.16s.73,10.85,2.58,15.13,3.39,3.76,2.43,0S315.81,155.16,315.81,155.16Z"/><path class="cls-25" d="M328,173.17a2,2,0,0,0-.25.39,19,19,0,0,0-1,6.07,37.37,37.37,0,0,1-5.27-1c.3,0,4.24.09,4.39-1.55a18.77,18.77,0,0,1,1.17-4.13Z"/><path class="cls-18" d="M211.49,134.48s4.13,1.36,7.52,9.33,15.62,28.74,18.13,28.74,8.11-7.51,11.06-11.72,3.68-7.29,4.57-6.85,6.63,3.17,7.52,5.08.66,2.36,0,3.62-9.66,17.39-15,21.37-8.47,4.5-11.5,2.36-22.77-26.06-22.77-26.06-5.39-7.4-4.5-15.37S211.49,134.48,211.49,134.48Z"/><path class="cls-32" d="M197.33,88.37s-11.79-4-18.35,2.36-14.52,14.6-17,17.25.89,7.52-1.92,12.24-4.12,6.19-2.65,10.32,9.14,14.44,8.85,21.37,29.19-.59,34.94-11,13.12-25.66,9.14-38.48S197.33,88.37,197.33,88.37Z"/><path class="cls-33" d="M173.72,199.72a46.51,46.51,0,0,0,1.5-10.26c0-.55,0-1.1,0-1.65-.23-12.49-5.25-24.18-5.37-27.21h0a1,1,0,0,1,.07-.57,26.9,26.9,0,0,0,1.55-14.82c-1.13-5.39-4.85-9.07-5.16-10.72a.68.68,0,0,1,.18-.66c1-.89,3.71-2.17,7.67-3.16,1-.27,2.18-.51,3.38-.72,5.75-1,8.2-1.32,8.3,0,0,.08,0,.2.06.34a1.29,1.29,0,0,0,.05.24c0,.09,0,.2.07.31s.09.35.14.55c.23.91.57,2.15,1,3.6,0,0,0,.07,0,.09l0,.07a2.46,2.46,0,0,1,.07.29c.21.8.44,1.67.67,2.57l0,.1c.1.42.21.85.32,1.29,0,.11.05.21.08.33.08.36.17.73.26,1.11a.83.83,0,0,1,0,.15c0,.13.06.27.09.41.08.31.14.61.21.92l.27,1.3c.13.57.24,1.14.34,1.71.07.36.13.72.19,1.08a3.49,3.49,0,0,1,.07.43c.09.49.16,1,.23,1.47,1.11,7.84,3.21,17.69,3.66,17.25s1.87-12.27,2.86-21.9c.07-.59.13-1.16.18-1.7s.09-.81.13-1.19.09-.79.14-1.16.09-.86.15-1.27a.71.71,0,0,1,0-.15c.07-.46.12-.9.17-1.31v0c.13-.9.24-1.7.36-2.44,0-.25.07-.48.12-.7.15-.89.31-1.63.47-2.22a3.44,3.44,0,0,1,.11-.41c.08-.26.16-.48.24-.67l.05-.11h0a1.35,1.35,0,0,1,.31-.44s0,0,.06-.06a.33.33,0,0,1,.27-.06,84.39,84.39,0,0,1,9,2.54c2,.75,3.5,1.55,3.12,2.21-1,1.77-2.65,5.87-2.87,13.71s2.65,10.95,2.43,12.17-.55,0-1,2.32-.11,20.79,4,32.07S225,223.27,225,223.27H164.6A120,120,0,0,0,173.72,199.72Z"/><path class="cls-19" d="M200.2,196.9s8.78,1.16,10.7,3.67,2.21,7.22,1.18,6.19-3-2.66-4-3.54-2.8-.15-4.28-.15a11.42,11.42,0,0,1-3.8-1.17s-2.24,3.12-1.65-.36S200.2,196.9,200.2,196.9Z"/><path class="cls-19" d="M255.46,155.36a22.93,22.93,0,0,0,4.79-6.39c1.44-3.32,7.08-7.3,8.4-6.75s-2.43,4-2,4.64,5.86,1.22,10.73,1.11,7.3-1.55,8.18-.88-.88,1.67-.88,1.67,2.65.42,1.77,1.81-11.25,3.82-15.41,4.59-8.26.22-9.25,1.1a13.94,13.94,0,0,0-1.9,2.22,6.14,6.14,0,0,1-2.86-.89A3.28,3.28,0,0,1,255.46,155.36Z"/><path class="cls-18" d="M208.37,132.26c-1.4,2.71-2.46,9.12-3.07,10.44-.82,1.77-4.21-.52-5.38-.44s1.91,3,3.24,4.56c1.11,1.31-4.48,11.29-6.69,15.5a18,18,0,0,0-.83,1.68c-.67,1.77-1.62,4.94-3,1.92-.88-1.9-4.49-7-7.43-11.18-1.73-2.46-3.23-4.58-3.78-5.48-1.48-2.44,1.48-4.5,2.43-6s-5.59,1.25-6.26-.3-3.43-12.33-3.43-12.33c1-.26,2.18-.51,3.39-.71,5.75-1,8.19-1.33,8.3,0a1.76,1.76,0,0,0,0,.33,1.29,1.29,0,0,0,.05.24c0,.1.05.21.07.31l.14.56c.23.9.57,2.14,1,3.6a.32.32,0,0,1,0,.09.25.25,0,0,0,0,.07,1.28,1.28,0,0,1,.07.28c.22.81.45,1.66.68,2.58a.24.24,0,0,0,0,.09c.11.43.21.85.32,1.29,0,.11.05.22.08.33.09.36.18.74.27,1.12q0,.06,0,.15h0l.09.39c.07.31.13.61.2.92s.19.87.28,1.3.23,1.14.33,1.71c.07.36.13.73.2,1.08,0,.15,0,.29.07.43.09.5.16,1,.23,1.47,1.1,7.85,3.21,17.69,3.65,17.25s1.88-12.27,2.87-21.89c.06-.59.12-1.16.17-1.71s.09-.8.14-1.18.08-.79.13-1.16.1-.87.15-1.28c0-.05,0-.1,0-.15.06-.46.11-.89.16-1.31v0c.13-.91.24-1.71.36-2.44l.12-.7c.15-.9.31-1.63.47-2.22a3.56,3.56,0,0,1,.12-.42c.08-.26.16-.48.23-.66l.06-.12h0a1.46,1.46,0,0,1,.3-.44s0,0,.06-.05a.34.34,0,0,1,.27-.06A84.18,84.18,0,0,1,208.37,132.26Z"/><path class="cls-34" d="M193.69,165.55s-3.87,3.11-4.32,10.62-1.91,29.85-3.24,38-1.18,9.14-1.18,9.14h1.33s3-29.74,3.65-38.92,1.14-12.23,1.95-14.63,1.81-2.55,1.81-2.55Z"/><path class="cls-35" d="M197.33,136.85v0c-.06.42-.11.85-.16,1.31,0,0,0,.1,0,.15-.05.41-.1.83-.15,1.28s-.09.76-.13,1.16-.09.77-.14,1.18-.11,1.12-.17,1.71c-1,9.62-2.43,21.45-2.87,21.89s-2.55-9.4-3.65-17.25c-.07-.48-.14-1-.23-1.47,0-.14-.05-.28-.07-.43-.07-.35-.13-.72-.2-1.08-.1-.57-.21-1.13-.33-1.71s-.18-.87-.28-1.3-.13-.61-.2-.92l-.09-.39h0q0-.09,0-.15c-.09-.38-.18-.76-.27-1.12,0-.11-.05-.22-.08-.33-.11-.44-.21-.86-.32-1.29a.24.24,0,0,1,0-.09c-.23-.92-.46-1.77-.68-2.58a1.28,1.28,0,0,0-.07-.28,5.36,5.36,0,0,0,5.2,3.54A8.64,8.64,0,0,0,197.33,136.85Z"/><path class="cls-19" d="M197.63,123.83a15.58,15.58,0,0,0,1.06,6.45h0l-.06.12c-.07.18-.15.4-.23.66a4.21,4.21,0,0,0-.12.42c-.16.59-.32,1.32-.47,2.22l-.12.7c-.12.73-.23,1.53-.36,2.44a8.64,8.64,0,0,1-5,1.84,5.36,5.36,0,0,1-5.2-3.54.25.25,0,0,1,0-.07.32.32,0,0,0,0-.09c-.39-1.46-.73-2.7-1-3.6l-.14-.56c0-.1,0-.21-.07-.31s0-.17-.05-.24a1.76,1.76,0,0,1,0-.33,15.24,15.24,0,0,0,.88-4.58c.15-2.79-.44-3-2.72-5.08s-5-9.07-5-10.84,2.16-6,3.88-5.89,3.49,1.47,6.07-.81,5.82-9.14,9.8-6.93,5.24,5.67,5.39,10,.44,9.29-2.43,12.9S197.85,122.58,197.63,123.83Z"/><path class="cls-36" d="M198.88,194.52c-2-1.53-14.57-4-23.67-6.71-4.05-1.22-7.41-2.5-8.84-3.79-4.58-4.15,3.27-22.94,3.47-23.42h0a1,1,0,0,1,.07-.57,26.9,26.9,0,0,0,1.55-14.82c-1.13-5.39-4.85-9.07-5.16-10.72-.26.13-5,2.62-8.22,13.49-3.31,11.16-9.29,37.92-4.64,43.67,2,2.53,10.91,5.56,20.28,8.08,11.93,3.22,24.66,5.62,25.16,5.19C199.76,204.14,201.75,196.73,198.88,194.52Z"/><path class="cls-37" d="M163.46,142.17a59.28,59.28,0,0,1-1.64,23.55c-3.54,12.53-8.41,26.3-8.41,19.41s-1.31-9.18,2.66-24.06S163.46,142.17,163.46,142.17Z"/><path class="cls-37" d="M156.77,191.3s5.81,2.27,19.29,7.22,20.6,6.72,19.51,2.62-14.51-8.66-22-11.17S156.77,191.3,156.77,191.3Z"/><path class="cls-22" d="M185.61,121.77a11.77,11.77,0,0,0,6.64,3.18c3.84.34,5.38-1.12,5.38-1.12s-2.53,5.55-4.85,6.21S185.61,121.77,185.61,121.77Z"/><path class="cls-37" d="M174.15,161.07s4.82,14.07,10,11.09,5.83-4.12.84-12.28-6.92-7.47-8.73-4.72A14.29,14.29,0,0,0,174.15,161.07Z"/><path class="cls-37" d="M203.8,157.4s-7.34,5.4-4.43,8.15,7.24,2.47,8.06-1.26S203.8,157.4,203.8,157.4Z"/><path class="cls-37" d="M195.57,176.17s-4.42,8.58,2.7,13.29,12.64,6.35,12,0-3-13.17-6.05-15.06S195.57,176.17,195.57,176.17Z"/><path class="cls-8" d="M235.37,215.59v9.48a5.7,5.7,0,0,1-5.76,5.64H97.28v-2.94c2.11-.59,3.6-2.13,3.6-3.94v-7.08c0-1.8-1.49-3.34-3.6-3.94V210H229.61A5.7,5.7,0,0,1,235.37,215.59Z"/><path class="cls-5" d="M184.4,215.59v9.48a5.69,5.69,0,0,1-5.76,5.64H97.28v-2.94c2.11-.59,3.6-2.13,3.6-3.94v-7.08c0-1.8-1.49-3.34-3.6-3.94V210h81.36A5.69,5.69,0,0,1,184.4,215.59Z"/><path class="cls-38" d="M181.34,216.75v7.08a1.41,1.41,0,0,1,0,.2c-.13,2.23-2.57,4-5.56,4H97.29v-.27a5.36,5.36,0,0,0,2.84-1.83h0a3.53,3.53,0,0,0,.74-1.91,1.41,1.41,0,0,0,0-.2v-7.08a1.27,1.27,0,0,0,0-.2,3.46,3.46,0,0,0-.45-1.46,5.23,5.23,0,0,0-3.14-2.28v-.27h78.48c3,0,5.43,1.78,5.56,4A1.27,1.27,0,0,1,181.34,216.75Z"/><path class="cls-39" d="M181.34,216.75v.51H100.88v-.51a1.34,1.34,0,0,0,0-.2h80.46A1.34,1.34,0,0,1,181.34,216.75Z"/><path class="cls-39" d="M181.34,222.3v1.53a1.34,1.34,0,0,1,0,.2H100.87a1.34,1.34,0,0,0,0-.2V222.3Z"/><path class="cls-40" d="M181.34,216.75v7.08a1.41,1.41,0,0,1,0,.2c-.13,2.23-2.57,4-5.56,4H97.29v-.27a5.36,5.36,0,0,0,2.84-1.83h0c12.11.28,80.18,4.28,78.14-7-1.22-6.76-58.77-4.72-77.85-3.86a5.23,5.23,0,0,0-3.14-2.28v-.27h78.48c3,0,5.43,1.78,5.56,4A1.27,1.27,0,0,1,181.34,216.75Z"/><path class="cls-21" d="M283.5,228.56l-1,2.79s-2.95.5-3.69,2.56c-1.07,3-2.08,6-3.15,9-.64,1.8-1.52,4,.72,5.53L275.11,252l-67.5-24.18h0l-19.43-7c-5.28-1.9-8.95-6.1-9.89-10.66a10.89,10.89,0,0,1,.39-5.95h0c2.31-6.46,10.32-9.5,17.88-6.79Z"/><path class="cls-3" d="M207.6,227.76l-19.43-7c-5.28-1.9-8.95-6.1-9.89-10.66,5.88,5,13.21,10.08,16.51,8.68a24,24,0,0,0,9.3-7.27C204,212.13,201.56,224.88,207.6,227.76Z"/><path class="cls-2" d="M205,209.05l-3.53,9.86c-1.17,3.25,1,7,4.78,8.36L275.12,252l1.26-3.53c-2.24-1.52-1.36-3.73-.72-5.54,1.07-3,2.08-6,3.15-9,.74-2.06,3.69-2.56,3.69-2.56l1-2.79-66.81-23.95C211.74,202.84,206.5,204.83,205,209.05Z"/><path class="cls-38" d="M282.5,231.35s-2.61.44-3.53,2.21a1.87,1.87,0,0,0-.16.35l0,.09c-.07.23-.15.46-.23.69-.56,1.57-1.11,3.14-1.65,4.69l-.63,1.81c-.19.56-.4,1.13-.6,1.7-.12.34-.26.7-.37,1.08h0c-.5,1.55-.72,3.22,1.09,4.45l-63.75-22.85c-3.52-1.26-5.69-4.21-4.84-6.58l2.57-7.19a4.24,4.24,0,0,1,.74-1.27,3.91,3.91,0,0,1,.58-.57c1.95-1.63,5.47-2,9-.77Z"/><path class="cls-39" d="M209.17,215.12l-.64,1.79,67.73,24.28.63-1.8Z"/><path class="cls-39" d="M211.1,210.53l67.44,24.17c.07-.24.16-.46.24-.69l-67.1-24A3.48,3.48,0,0,0,211.1,210.53Z"/><path class="cls-40" d="M282.5,231.35s-2.61.44-3.53,2.21c-16.88-7.37-59.15-25.14-63.19-19.93-6.84,8.83,33.08,23,59.51,30.34h0c-.5,1.55-.72,3.22,1.09,4.45l-63.75-22.85c-3.52-1.26-5.69-4.21-4.84-6.58l2.57-7.19a4.24,4.24,0,0,1,.74-1.27,3.91,3.91,0,0,1,.58-.57c1.95-1.63,5.47-2,9-.77Z"/><g class="cls-41"><path class="cls-2" d="M190.79,199.93s-9.39-.78-9.45,4.47,11.71,8.12,16,7.13,8.94-6.74,5-8.29A115,115,0,0,0,190.79,199.93Z"/></g><path class="cls-7" d="M239.6,236.08v7.09c0,1.8,1.49,3.34,3.6,3.94V250H110.87a5.76,5.76,0,0,1-5.32-3.46,5.39,5.39,0,0,1-.44-2.17v-9.49a5.7,5.7,0,0,1,5.76-5.63H243.2v2.86C241.09,232.75,239.6,234.28,239.6,236.08Z"/><path class="cls-6" d="M239.6,236.08v7.09c0,1.8,1.49,3.34,3.6,3.94V250H161.84a2.48,2.48,0,0,1-.38,0,5.71,5.71,0,0,1-4.94-3.44,5.4,5.4,0,0,1-.45-2.17v-9.49a5.71,5.71,0,0,1,5.77-5.63H243.2v2.86C241.09,232.75,239.6,234.28,239.6,236.08Z"/><path class="cls-38" d="M239.6,236.08v7.09a1.21,1.21,0,0,0,0,.19A3.71,3.71,0,0,0,241,246a5.88,5.88,0,0,0,2.17,1.12v.27H164.7c-3,0-5.41-1.78-5.55-4a1.21,1.21,0,0,1,0-.19v-7.09a1.21,1.21,0,0,1,0-.19c.14-2.23,2.57-4,5.55-4h78.5v.28a5.53,5.53,0,0,0-2.72,1.65,3.4,3.4,0,0,0-.87,2.09A1.21,1.21,0,0,0,239.6,236.08Z"/><path class="cls-39" d="M159.14,236.08v.51h80.45v-.51a1.21,1.21,0,0,1,0-.19H159.15A1.21,1.21,0,0,0,159.14,236.08Z"/><path class="cls-39" d="M159.14,241.64v1.53a1.21,1.21,0,0,0,0,.19H239.6a1.21,1.21,0,0,1,0-.19v-1.53Z"/><path class="cls-40" d="M163.66,236.59c-1.62,6.77,9.14,9.4,27.13,9.4H241a5.88,5.88,0,0,0,2.17,1.12v.27H164.7c-3,0-5.41-1.78-5.55-4a1.21,1.21,0,0,1,0-.19v-7.09a1.21,1.21,0,0,1,0-.19c.14-2.23,2.57-4,5.55-4h78.5v.28a5.53,5.53,0,0,0-2.72,1.65C224.53,233.07,165.06,230.73,163.66,236.59Z"/><g class="cls-42"><path class="cls-32" d="M161.46,250v0H110.87a5.84,5.84,0,0,1-4.05-1.62,5.72,5.72,0,0,1-1.27-1.84h51a5.47,5.47,0,0,0,1.27,1.84A5.76,5.76,0,0,0,161.46,250Z"/></g><path class="cls-32" d="M161.46,250v0H110.87a5.84,5.84,0,0,1-4.05-1.62h51A5.76,5.76,0,0,0,161.46,250Z"/><g class="cls-43"><path class="cls-6" d="M112.84,232c-2.06,1.11-3,4.46-2.75,6.59a4,4,0,0,0,.84,2.16,5,5,0,0,0,2.14,1.29,33.8,33.8,0,0,0,6.35,1.54,103.9,103.9,0,0,0,22.42,1.26,24.58,24.58,0,0,0,6.27-.94,2.41,2.41,0,0,0,1.43-.94,2.58,2.58,0,0,0,.2-1.38q-.13-4.11-.29-8.21a1.23,1.23,0,0,0-.09-.5,1.17,1.17,0,0,0-.77-.49,23.53,23.53,0,0,0-5.92-.73q-10.26-.37-20.52-.17C119.63,231.55,115.09,230.84,112.84,232Z"/></g><path class="cls-28" d="M332.88,130.61l-1.66,2.46c0,.05-.05.09-.07.13a5.1,5.1,0,0,1-8.45-5.68l.09-.11h0l1.67-2.47Z"/><path class="cls-5" d="M344.18,124.25a10.87,10.87,0,0,1-8.79,4.81A8.56,8.56,0,0,1,334,129l-1.08,1.61-8.43-5.68,1.07-1.6a10.17,10.17,0,0,1-.66-1.47,10.91,10.91,0,1,1,19.32,2.39Z"/><path class="cls-12" d="M335.13,130.17h0a1.6,1.6,0,0,1-2.23.43h0l-8.43-5.68-.23-.15a1.6,1.6,0,0,1-.44-2.22h0a1.6,1.6,0,0,1,2.22-.44l8.7,5.84a1.54,1.54,0,0,1,.69,1.11A1.58,1.58,0,0,1,335.13,130.17Z"/><path class="cls-18" d="M340.3,112.05s5.32,5.17,2.91,9.15a4.44,4.44,0,0,1-7.69.34C334.67,119.63,340.3,112.05,340.3,112.05Z"/><path class="cls-5" d="M343.31,106h0a1.55,1.55,0,0,1-.42-2.15L346.13,99a1.56,1.56,0,0,1,2.15-.43h0a1.55,1.55,0,0,1,.42,2.15l-3.24,4.84A1.56,1.56,0,0,1,343.31,106Z"/><path class="cls-5" d="M348.32,113.54h0a1.55,1.55,0,0,1,1.22-1.82l5.71-1.12a1.56,1.56,0,0,1,1.82,1.22h0a1.55,1.55,0,0,1-1.22,1.82l-5.72,1.12A1.53,1.53,0,0,1,348.32,113.54Z"/><path class="cls-5" d="M334,103.9h0a1.56,1.56,0,0,0,1.23-1.82l-1.13-5.71a1.53,1.53,0,0,0-1.81-1.22h0A1.54,1.54,0,0,0,331,97l1.12,5.72A1.54,1.54,0,0,0,334,103.9Z"/><path class="cls-18" d="M192,262a3.81,3.81,0,1,1-3.81-3.81A3.82,3.82,0,0,1,192,262Z"/><path class="cls-18" d="M166.33,267.74a1.93,1.93,0,1,1-1.93-1.93A1.93,1.93,0,0,1,166.33,267.74Z"/><circle class="cls-18" cx="165.5" cy="255.64" r="1.93"/><circle class="cls-18" cx="262.03" cy="252.99" r="1.93"/><path class="cls-18" d="M289.52,251.41A3.51,3.51,0,1,1,286,247.9,3.52,3.52,0,0,1,289.52,251.41Z"/><path class="cls-18" d="M309.42,192.17a3.51,3.51,0,1,1-3.51-3.51A3.51,3.51,0,0,1,309.42,192.17Z"/><path class="cls-18" d="M371.12,164.23a3.51,3.51,0,1,1-3.51-3.51A3.51,3.51,0,0,1,371.12,164.23Z"/><path class="cls-18" d="M28.42,220.33a3.51,3.51,0,1,1-3.51-3.51A3.51,3.51,0,0,1,28.42,220.33Z"/><path class="cls-18" d="M82.62,148.72a5.87,5.87,0,1,1-5.87-5.87A5.87,5.87,0,0,1,82.62,148.72Z"/><path class="cls-18" d="M207.93,47.36a5.88,5.88,0,1,1-5.88-5.88A5.87,5.87,0,0,1,207.93,47.36Z"/><circle class="cls-18" cx="142.31" cy="16.05" r="3.4"/><path class="cls-18" d="M174.85,32.23a4.69,4.69,0,1,1-4.68-4.68A4.69,4.69,0,0,1,174.85,32.23Z"/><circle class="cls-18" cx="310.59" cy="34.89" r="4.68"/><circle class="cls-18" cx="100.27" cy="25.82" r="2.99"/><path class="cls-18" d="M112.75,48a3,3,0,1,1-3-3A3,3,0,0,1,112.75,48Z"/></g></svg>